<svg class="cta-icon" xmlns="http://www.w3.org/2000/svg" viewBox="0 0 24 24" aria-hidden="true">
    <path d="M12 2.5a9.5 9.5 0 0 0-3 18.52c.47.09.64-.2.64-.45v-1.58c-2.6.57-3.15-1.1-3.15-1.1-.42-1.06-1.03-1.35-1.03-1.35-.84-.57.06-.56.06-.56.93.07 1.42.95 1.42.95.83 1.41 2.17 1 2.7.77.08-.6.32-1 .59-1.23-2.08-.24-4.28-1.04-4.28-4.63 0-1.02.37-1.86.97-2.52-.1-.24-.42-.99.09-2.07 0 0 .8-.26 2.62.96A9.1 9.1 0 0 1 12 7.18c.81 0 1.62.11 2.38.33 1.82-1.22 2.61-.96 2.61-.96.51 1.08.19 1.83.1 2.07.6.66.97 1.5.97 2.52 0 3.6-2.2 4.39-4.3 4.62.34.29.64.85.64 1.72v2.55c0 .25.17.54.65.45A9.5 9.5 0 0 0 12 2.5Z" fill="currentColor"/>
</svg>