<!DOCTYPE svg PUBLIC "-//W3C//DTD SVG 1.1//EN" "http://www.w3.org/Graphics/SVG/1.1/DTD/svg11.dtd">
<!-- Uploaded to: SVG Repo, www.svgrepo.com, Transformed by: SVG Repo Mixer Tools -->
<svg fill="#D1D0C5FF" width="800px" height="800px" viewBox="0 0 512 512" version="1.1" xml:space="preserve" xmlns="http://www.w3.org/2000/svg" xmlns:xlink="http://www.w3.org/1999/xlink" stroke="#D1D0C5FF">
<g id="SVGRepo_bgCarrier" stroke-width="0"/>
<g id="SVGRepo_tracerCarrier" stroke-linecap="round" stroke-linejoin="round"/>
<g id="SVGRepo_iconCarrier"> <g id="Screw"> <g id="XMLID_456_"> <path d="M206.727,239.614c0.704,0.151,1.489,0.223,2.181,0.223c4.597,0,8.771-3.201,9.774-7.877 c1.153-5.38-2.42-10.676-7.799-11.829L167,210.759v20.377L206.727,239.614z" id="XMLID_457_"/> <path d="M65.003,188.785c-5.387-1.153-10.784,2.274-11.937,7.654c-1.153,5.38,2.435,10.676,7.814,11.829 L104,217.474v-20.377L65.003,188.785z" id="XMLID_1392_"/> <path d="M65.003,251.477c-5.387-1.153-10.784,2.274-11.937,7.653c-1.153,5.38,2.435,10.677,7.814,11.83 L104,280.166v-20.378L65.003,251.477z" id="XMLID_1393_"/> <path d="M206.727,302.306c0.704,0.151,1.489,0.223,2.181,0.223c4.597,0,8.771-3.201,9.774-7.877 c1.153-5.38-2.42-10.677-7.799-11.83L167,273.45v20.378L206.727,302.306z" id="XMLID_1394_"/> <path d="M206.727,364.997c0.704,0.151,1.489,0.223,2.181,0.223c4.597,0,8.771-3.201,9.774-7.877 c1.153-5.38-2.42-10.677-7.799-11.83L167,336.142v20.378L206.727,364.997z" id="XMLID_1395_"/> <path d="M65.003,314.168c-5.387-1.153-10.784,2.275-11.937,7.654c-1.153,5.38,2.435,10.677,7.814,11.83 L104,342.857v-20.378L65.003,314.168z" id="XMLID_1396_"/> <path d="M65.003,376.86c-5.387-1.153-10.784,2.275-11.937,7.654c-1.153,5.38,2.435,10.677,7.814,11.83 L104,405.549v-20.378L65.003,376.86z" id="XMLID_1397_"/> <path d="M206.727,427.689c0.704,0.151,1.489,0.223,2.181,0.223c4.597,0,8.771-3.201,9.774-7.877 c1.153-5.38-2.42-10.677-7.799-11.83L167,398.833v20.378L206.727,427.689z" id="XMLID_1398_"/> <polygon id="XMLID_1399_" points="104,385.171 167,398.833 167,356.52 104,342.857 "/> <polygon id="XMLID_1400_" points="104,460.234 135.5,507.981 167,460.234 167,419.212 104,405.549 "/> <polygon id="XMLID_1401_" points="104,217.474 104,259.788 167,273.45 167,231.137 "/> <polygon id="XMLID_1402_" points="104,322.479 167,336.142 167,293.829 104,280.166 "/> <path d="M188.343,73h-25.447L155.2,88.442C153.512,91.817,150.063,94,146.29,94h-20.897 c-3.774,0-7.223-2.184-8.911-5.559L108.787,73H83.339C65.93,73,52,87.08,52,104.489V136h42.047h83.589H220v-31.511 C220,87.08,205.752,73,188.343,73z" id="XMLID_1403_"/> <polygon id="XMLID_1404_" points="167,156 104,156 104,197.096 167,210.759 "/> <polygon id="XMLID_1405_" points="345,356 408,356 408,315.151 345,301.488 "/> <polygon id="XMLID_1406_" points="408,189.768 345,176.105 345,218.419 408,232.082 "/> <polygon id="XMLID_1407_" points="408,51.766 376.5,4.019 345,51.766 345,93.035 408,106.698 "/> <polygon id="XMLID_1408_" points="408,294.772 408,252.459 345,238.796 345,281.109 "/> <polygon id="XMLID_1409_" points="408,127.076 345,113.413 345,155.727 408,169.39 "/> <path d="M417.953,376h-83.589H292v31.758C292,425.167,306.248,439,323.657,439h25.447l7.696-15.442 c1.688-3.375,5.137-5.558,8.911-5.558h20.897c3.774,0,7.223,2.183,8.911,5.559L403.213,439h25.448 C446.07,439,460,425.167,460,407.758V376H417.953z" id="XMLID_1410_"/> <path d="M446.997,323.462c0.704,0.151,1.513,0.223,2.205,0.223c4.597,0,8.783-3.201,9.785-7.877 c1.153-5.38-2.462-10.677-7.841-11.83L408,294.772v20.378L446.997,323.462z" id="XMLID_1411_"/> <path d="M305.273,272.632c-5.387-1.153-10.76,2.275-11.913,7.654c-1.153,5.38,2.399,10.677,7.779,11.83 L345,301.488v-20.378L305.273,272.632z" id="XMLID_1412_"/> <path d="M305.273,209.941c-5.387-1.154-10.76,2.274-11.913,7.654c-1.153,5.38,2.399,10.676,7.779,11.829 L345,238.796v-20.378L305.273,209.941z" id="XMLID_1413_"/> <path d="M446.997,260.77c0.704,0.151,1.513,0.223,2.205,0.223c4.597,0,8.783-3.201,9.785-7.877 c1.153-5.38-2.462-10.676-7.841-11.829L408,232.082v20.378L446.997,260.77z" id="XMLID_1414_"/> <path d="M446.997,198.078c0.704,0.151,1.513,0.223,2.205,0.223c4.597,0,8.783-3.201,9.785-7.877 c1.153-5.38-2.462-10.676-7.841-11.829L408,169.39v20.377L446.997,198.078z" id="XMLID_1415_"/> <path d="M305.273,147.25c-5.387-1.154-10.76,2.274-11.913,7.654c-1.153,5.38,2.399,10.676,7.779,11.829 L345,176.105v-20.377L305.273,147.25z" id="XMLID_1416_"/> <path d="M446.997,135.386c0.704,0.151,1.513,0.223,2.205,0.223c4.597,0,8.783-3.201,9.785-7.877 c1.153-5.38-2.462-10.676-7.841-11.829L408,106.698v20.377L446.997,135.386z" id="XMLID_1417_"/> <path d="M305.273,84.558c-5.387-1.153-10.76,2.274-11.913,7.654c-1.153,5.38,2.399,10.676,7.779,11.829 L345,113.413V93.035L305.273,84.558z" id="XMLID_1418_"/> </g> </g> <g id="Layer_1"/> </g>
</svg>